<?xml version="1.0" standalone="no"?>
<!DOCTYPE svg PUBLIC "-//W3C//DTD SVG 20010904//EN"
 "http://www.w3.org/TR/2001/REC-SVG-20010904/DTD/svg10.dtd">
<svg version="1.0" xmlns="http://www.w3.org/2000/svg"
 width="600.000000pt" height="600.000000pt" viewBox="0 0 600.000000 600.000000"
 preserveAspectRatio="xMidYMid meet">

<g transform="translate(0.000000,600.000000) scale(0.100000,-0.100000)"
fill="#000000" stroke="none">
<path d="M506 4680 c-53 -27 -82 -55 -106 -105 -19 -40 -20 -61 -20 -641 0
-561 2 -602 19 -640 22 -48 82 -101 131 -114 19 -6 144 -10 278 -10 l242 0 0
-33 c0 -18 -5 -38 -12 -45 -9 -9 -75 -12 -234 -12 -134 0 -234 -4 -251 -11
-98 -37 -118 -157 -37 -228 30 -26 43 -31 89 -31 56 0 85 -16 85 -49 0 -38
-18 -41 -227 -41 -219 0 -235 -3 -282 -53 -31 -34 -39 -102 -17 -145 34 -65
39 -66 366 -72 l295 -5 5 -220 5 -220 659 -3 c478 -1 663 1 672 9 11 9 14 69
14 300 0 248 -2 290 -16 303 -14 14 -87 16 -655 16 -422 0 -647 -4 -660 -10
-13 -8 -19 -21 -19 -45 l0 -35 -283 0 c-207 0 -286 3 -295 12 -19 19 -14 45
10 62 19 13 58 16 223 16 181 0 203 2 232 20 88 53 81 190 -11 234 -19 9 -54
16 -78 16 -24 0 -49 5 -56 12 -18 18 -14 56 7 68 12 6 108 10 241 10 245 0
264 4 300 63 12 18 20 50 20 75 l0 42 60 0 c50 0 60 -3 60 -17 0 -10 -14 -91
-32 -180 l-32 -163 -48 0 -48 0 0 -45 0 -45 405 0 405 0 0 45 0 45 -50 0 c-27
0 -50 1 -50 3 0 2 -16 82 -35 177 -19 95 -35 175 -35 177 0 2 27 3 60 3 l60 0
0 -32 c0 -45 34 -110 69 -131 26 -15 66 -17 394 -17 319 0 368 -2 381 -16 9
-8 16 -23 16 -33 0 -33 -22 -41 -112 -41 -55 0 -102 -6 -123 -14 -44 -19 -75
-69 -75 -122 0 -38 -3 -43 -50 -72 -75 -47 -90 -86 -90 -237 0 -143 9 -180 52
-222 76 -73 190 -71 260 3 41 44 48 75 48 215 0 155 -14 194 -85 237 -40 24
-44 31 -45 64 0 50 18 58 127 58 70 0 95 4 120 20 83 50 84 170 2 228 -21 15
-68 18 -404 22 l-380 5 -3 43 -3 42 248 0 c246 0 250 0 300 25 51 26 91 72
112 128 7 19 11 227 11 612 0 385 -4 593 -11 612 -21 56 -61 102 -112 128
l-51 25 -955 0 c-930 -1 -957 -1 -995 -20z m1963 -88 c19 -10 43 -34 53 -53
17 -31 18 -68 18 -521 l0 -488 -1035 0 -1035 0 0 496 c0 491 0 496 21 526 43
60 1 57 1014 58 882 0 932 -1 964 -18z m71 -1190 c0 -50 -29 -101 -71 -124
-32 -17 -82 -18 -967 -18 -1017 0 -965 -3 -1011 56 -15 19 -21 41 -21 75 l0
49 1035 0 1035 0 0 -38z m-859 -409 l35 -178 -209 -3 c-116 -1 -211 -1 -213 1
-2 2 12 82 31 178 19 96 35 175 35 177 0 1 64 2 143 2 l143 0 35 -177z m809
-378 c16 -8 34 -24 40 -34 5 -11 10 -72 10 -136 0 -115 0 -117 -29 -146 -20
-20 -39 -29 -61 -29 -22 0 -41 9 -61 29 -29 29 -29 31 -29 140 0 129 8 157 52
176 42 18 43 18 78 0z m-400 -300 l0 -225 -585 0 -585 0 0 225 0 225 585 0
585 0 0 -225z"/>
<path d="M1010 2405 l0 -45 45 0 45 0 0 45 0 45 -45 0 -45 0 0 -45z"/>
<path d="M1190 2405 l0 -45 45 0 45 0 0 45 0 45 -45 0 -45 0 0 -45z"/>
<path d="M1370 2405 l0 -45 45 0 45 0 0 45 0 45 -45 0 -45 0 0 -45z"/>
<path d="M1550 2405 l0 -45 45 0 45 0 0 45 0 45 -45 0 -45 0 0 -45z"/>
<path d="M1730 2405 l0 -45 45 0 45 0 0 45 0 45 -45 0 -45 0 0 -45z"/>
<path d="M1910 2405 l0 -45 45 0 45 0 0 45 0 45 -45 0 -45 0 0 -45z"/>
<path d="M1010 2225 l0 -45 45 0 45 0 0 45 0 45 -45 0 -45 0 0 -45z"/>
<path d="M1190 2225 l0 -45 315 0 315 0 0 45 0 45 -315 0 -315 0 0 -45z"/>
<path d="M1910 2225 l0 -45 45 0 45 0 0 45 0 45 -45 0 -45 0 0 -45z"/>
<path d="M2856 3603 c-3 -604 -9 -1263 -12 -1465 l-7 -368 45 0 45 0 7 513 c3
281 9 941 12 1465 l7 952 -45 0 -45 0 -7 -1097z"/>
<path d="M4513 3881 c-58 -36 -63 -58 -63 -276 0 -216 6 -242 60 -270 35 -18
106 -19 140 -2 45 23 60 70 60 195 l0 113 -62 -3 -63 -3 -3 -37 c-3 -35 -1
-38 22 -38 25 0 26 -2 26 -61 0 -71 -12 -99 -43 -99 -50 0 -52 8 -55 193 -3
172 -3 175 21 202 16 19 29 26 41 22 19 -7 36 -47 36 -83 0 -21 4 -24 40 -24
l40 0 0 40 c0 49 -19 98 -49 124 -31 28 -108 32 -148 7z"/>
<path d="M3126 3881 c-3 -5 -24 -118 -46 -252 -21 -134 -42 -256 -44 -271 -5
-27 -4 -28 34 -28 35 0 40 3 45 28 15 74 18 77 67 80 l46 3 7 -55 7 -56 44 0
c24 0 44 2 44 4 0 8 -80 501 -86 529 -5 25 -9 27 -59 27 -30 0 -56 -4 -59 -9z
m72 -234 l19 -127 -40 0 c-38 0 -39 1 -34 28 3 15 11 73 18 130 7 56 14 101
15 99 2 -2 12 -60 22 -130z"/>
<path d="M3377 3883 c-4 -3 -7 -129 -7 -280 l0 -273 120 0 120 0 0 40 0 40
-75 0 -75 0 0 240 0 240 -38 0 c-21 0 -42 -3 -45 -7z"/>
<path d="M3657 3883 c-4 -3 -7 -129 -7 -280 l0 -273 45 0 45 0 0 280 0 280
-38 0 c-21 0 -42 -3 -45 -7z"/>
<path d="M3886 3881 c-3 -5 -24 -118 -46 -252 -21 -134 -42 -256 -44 -271 -5
-27 -4 -28 34 -28 35 0 40 3 45 28 15 74 18 77 67 80 l46 3 7 -55 7 -56 44 0
c24 0 44 2 44 4 0 8 -80 501 -86 529 -5 25 -9 27 -59 27 -30 0 -56 -4 -59 -9z
m72 -234 l19 -127 -40 0 c-38 0 -39 1 -34 28 3 15 11 73 18 130 7 56 14 101
15 99 2 -2 12 -60 22 -130z"/>
<path d="M4137 3883 c-4 -3 -7 -129 -7 -280 l0 -273 45 0 44 0 3 118 3 117 30
0 c42 0 55 -32 55 -142 l0 -93 43 0 43 0 -4 118 c-3 92 -7 122 -22 142 -17 25
-17 27 1 49 15 18 19 40 19 98 0 88 -16 126 -61 142 -35 12 -181 15 -192 4z
m152 -82 c18 -11 25 -89 12 -123 -9 -23 -17 -28 -46 -28 l-35 0 0 73 c0 41 3
77 7 80 9 10 45 8 62 -2z"/>
<path d="M3030 3215 c0 -20 5 -25 25 -25 l25 0 0 -145 0 -145 25 0 25 0 0 145
0 145 30 0 c25 0 30 4 30 25 0 25 -1 25 -80 25 -79 0 -80 0 -80 -25z"/>
<path d="M3220 3070 l0 -170 70 0 c68 0 70 1 70 25 0 23 -4 25 -45 25 l-45 0
0 50 0 50 40 0 c36 0 40 3 40 25 0 23 -4 25 -40 25 l-40 0 0 45 0 45 45 0 c41
0 45 2 45 25 0 24 -2 25 -70 25 l-70 0 0 -170z"/>
<path d="M3420 3220 c-18 -18 -20 -33 -20 -150 0 -117 2 -132 20 -150 12 -12
33 -20 55 -20 50 0 75 28 75 85 0 41 -2 45 -24 45 -21 0 -25 -5 -28 -37 -2
-30 -7 -38 -23 -38 -19 0 -20 7 -20 115 0 108 1 115 20 115 15 0 21 -8 23 -32
3 -27 7 -33 28 -33 21 0 24 4 24 40 0 51 -27 80 -75 80 -22 0 -43 -8 -55 -20z"/>
<path d="M3580 3070 l0 -170 25 0 c24 0 25 2 25 75 l0 75 30 0 30 0 0 -75 c0
-73 1 -75 25 -75 l25 0 0 170 0 170 -25 0 c-24 0 -25 -2 -25 -70 l0 -70 -30 0
-30 0 0 70 c0 68 -1 70 -25 70 l-25 0 0 -170z"/>
</g>
</svg>
