<svg width="300" height="300" xmlns="http://www.w3.org/2000/svg" preserveAspectRatio="xMidYMid meet" version="1.0">

 <g>
  <title>Layer 1</title>
  <g id="svg_1" fill="#000000" transform="translate(0 300) scale(0.1 -0.1)">
   <path fill="#ffffff" id="svg_2" d="m998,2173c-55,-34 -58,-55 -58,-365c0,-249 2,-287 18,-318c28,-56 68,-70 205,-70c110,0 117,-1 117,-20c0,-19 -7,-20 -123,-20c-110,0 -126,-2 -145,-20c-47,-44 -9,-120 60,-120c23,0 29,-4 26,-17c-3,-16 -19,-19 -117,-23c-103,-5 -114,-7 -132,-29c-26,-31 -24,-57 6,-86c23,-24 28,-25 170,-25l145,0l0,-110l0,-110l338,2l337,3l0,150l0,150l-337,3c-333,2 -338,2 -338,-18c0,-19 -6,-20 -145,-20c-138,0 -145,1 -145,20c0,19 7,20 109,20c120,0 144,10 157,62c8,36 -32,78 -76,78c-23,0 -30,4 -30,20c0,19 7,20 113,20c128,0 158,10 172,58c7,26 14,32 37,32c24,0 28,-3 23,-22c-3,-13 -11,-52 -18,-88c-12,-59 -15,-65 -40,-68c-19,-2 -27,-9 -27,-23c0,-18 9,-19 205,-19c198,0 205,1 205,20c0,14 -7,20 -24,20c-21,0 -25,7 -40,83c-20,104 -21,97 14,97c25,0 30,-4 30,-23c0,-13 9,-32 21,-43c19,-17 42,-20 213,-24c161,-4 191,-7 191,-20c0,-11 -15,-16 -57,-20c-68,-6 -98,-27 -98,-70c0,-19 -5,-30 -14,-30c-8,0 -24,-12 -35,-26c-17,-22 -21,-41 -21,-101c0,-69 2,-77 29,-104c39,-38 88,-40 125,-3c24,24 26,34 26,107c0,79 -1,80 -36,114c-47,44 -40,63 24,63c84,0 129,59 88,116c-13,17 -31,19 -213,24c-178,5 -198,7 -201,23c-3,15 8,17 118,17c139,0 180,12 205,60c14,26 15,72 13,340l-3,310l-28,27l-27,28l-493,2c-450,3 -494,1 -519,-14zm998,-41c30,-20 34,-55 34,-291l0,-241l-520,0l-520,0l0,248c0,208 2,251 16,270l15,22l482,0c265,0 487,-4 493,-8zm34,-591c0,-10 -9,-30 -21,-45l-20,-26l-480,0c-466,0 -480,1 -499,20c-11,11 -20,31 -20,45l0,25l520,0c501,0 520,-1 520,-19zm-450,-123c0,-2 8,-42 18,-90l18,-88l-109,0c-108,0 -109,0 -104,22c4,12 12,53 19,90l12,68l73,0c40,0 73,-1 73,-2zm440,-287c11,-22 14,-100 4,-125c-10,-26 -41,-38 -64,-26c-17,9 -20,21 -20,78c0,40 5,73 12,80c18,18 56,14 68,-7zm-220,-136l0,-115l-295,0l-295,0l0,115l0,115l295,0l295,0l0,-115z"/>
   <path fill="#ffffff" id="svg_3" d="m1260,1040c0,-15 7,-20 25,-20c18,0 25,5 25,20c0,15 -7,20 -25,20c-18,0 -25,-5 -25,-20z"/>
   <path fill="#ffffff" id="svg_4" d="m1350,1040c0,-15 7,-20 25,-20c18,0 25,5 25,20c0,15 -7,20 -25,20c-18,0 -25,-5 -25,-20z"/>
   <path fill="#ffffff" id="svg_5" d="m1440,1040c0,-15 7,-20 25,-20c18,0 25,5 25,20c0,15 -7,20 -25,20c-18,0 -25,-5 -25,-20z"/>
   <path fill="#ffffff" id="svg_6" d="m1530,1040c0,-15 7,-20 25,-20c18,0 25,5 25,20c0,15 -7,20 -25,20c-18,0 -25,-5 -25,-20z"/>
   <path fill="#ffffff" id="svg_7" d="m1620,1040c0,-15 7,-20 25,-20c18,0 25,5 25,20c0,15 -7,20 -25,20c-18,0 -25,-5 -25,-20z"/>
   <path fill="#ffffff" id="svg_8" d="m1710,1040c0,-15 7,-20 25,-20c18,0 25,5 25,20c0,15 -7,20 -25,20c-18,0 -25,-5 -25,-20z"/>
   <path fill="#ffffff" id="svg_9" d="m1260,950c0,-15 7,-20 25,-20c18,0 25,5 25,20c0,15 -7,20 -25,20c-18,0 -25,-5 -25,-20z"/>
   <path fill="#ffffff" id="svg_10" d="m1350,950c0,-19 7,-20 160,-20c153,0 160,1 160,20c0,19 -7,20 -160,20c-153,0 -160,-1 -160,-20z"/>
   <path fill="#ffffff" id="svg_11" d="m1710,950c0,-15 7,-20 25,-20c18,0 25,5 25,20c0,15 -7,20 -25,20c-18,0 -25,-5 -25,-20z"/>
  </g>
 </g>
</svg>