<?xml version="1.0" standalone="no"?>
<!DOCTYPE svg PUBLIC "-//W3C//DTD SVG 20010904//EN"
 "http://www.w3.org/TR/2001/REC-SVG-20010904/DTD/svg10.dtd">
<svg version="1.0" xmlns="http://www.w3.org/2000/svg"
 width="300.000000pt" height="300.000000pt" viewBox="0 0 300.000000 300.000000"
 preserveAspectRatio="xMidYMid meet">

<g transform="translate(0.000000,300.000000) scale(0.100000,-0.100000)"
fill="#000000" stroke="none">
<path d="M998 2163 c-55 -34 -58 -55 -58 -365 0 -249 2 -287 18 -318 28 -56
68 -70 205 -70 110 0 117 -1 117 -20 0 -19 -7 -20 -123 -20 -110 0 -126 -2
-145 -20 -47 -44 -9 -120 60 -120 23 0 29 -4 26 -17 -3 -16 -19 -19 -117 -23
-103 -5 -114 -7 -132 -29 -26 -31 -24 -57 6 -86 23 -24 28 -25 170 -25 l145 0
0 -110 0 -110 338 2 337 3 0 150 0 150 -337 3 c-333 2 -338 2 -338 -18 0 -19
-6 -20 -145 -20 -138 0 -145 1 -145 20 0 19 7 20 109 20 120 0 144 10 157 62
8 36 -32 78 -76 78 -23 0 -30 4 -30 20 0 19 7 20 113 20 128 0 158 10 172 58
7 26 14 32 37 32 24 0 28 -3 23 -22 -3 -13 -11 -52 -18 -88 -12 -59 -15 -65
-40 -68 -19 -2 -27 -9 -27 -23 0 -18 9 -19 205 -19 198 0 205 1 205 20 0 14
-7 20 -24 20 -21 0 -25 7 -40 83 -20 104 -21 97 14 97 25 0 30 -4 30 -23 0
-13 9 -32 21 -43 19 -17 42 -20 213 -24 161 -4 191 -7 191 -20 0 -11 -15 -16
-57 -20 -68 -6 -98 -27 -98 -70 0 -19 -5 -30 -14 -30 -8 0 -24 -12 -35 -26
-17 -22 -21 -41 -21 -101 0 -69 2 -77 29 -104 39 -38 88 -40 125 -3 24 24 26
34 26 107 0 79 -1 80 -36 114 -47 44 -40 63 24 63 84 0 129 59 88 116 -13 17
-31 19 -213 24 -178 5 -198 7 -201 23 -3 15 8 17 118 17 139 0 180 12 205 60
14 26 15 72 13 340 l-3 310 -28 27 -27 28 -493 2 c-450 3 -494 1 -519 -14z
m998 -41 c30 -20 34 -55 34 -291 l0 -241 -520 0 -520 0 0 248 c0 208 2 251 16
270 l15 22 482 0 c265 0 487 -4 493 -8z m34 -591 c0 -10 -9 -30 -21 -45 l-20
-26 -480 0 c-466 0 -480 1 -499 20 -11 11 -20 31 -20 45 l0 25 520 0 c501 0
520 -1 520 -19z m-450 -123 c0 -2 8 -42 18 -90 l18 -88 -109 0 c-108 0 -109 0
-104 22 4 12 12 53 19 90 l12 68 73 0 c40 0 73 -1 73 -2z m440 -287 c11 -22
14 -100 4 -125 -10 -26 -41 -38 -64 -26 -17 9 -20 21 -20 78 0 40 5 73 12 80
18 18 56 14 68 -7z m-220 -136 l0 -115 -295 0 -295 0 0 115 0 115 295 0 295 0
0 -115z"/>
<path d="M1260 1030 c0 -15 7 -20 25 -20 18 0 25 5 25 20 0 15 -7 20 -25 20
-18 0 -25 -5 -25 -20z"/>
<path d="M1350 1030 c0 -15 7 -20 25 -20 18 0 25 5 25 20 0 15 -7 20 -25 20
-18 0 -25 -5 -25 -20z"/>
<path d="M1440 1030 c0 -15 7 -20 25 -20 18 0 25 5 25 20 0 15 -7 20 -25 20
-18 0 -25 -5 -25 -20z"/>
<path d="M1530 1030 c0 -15 7 -20 25 -20 18 0 25 5 25 20 0 15 -7 20 -25 20
-18 0 -25 -5 -25 -20z"/>
<path d="M1620 1030 c0 -15 7 -20 25 -20 18 0 25 5 25 20 0 15 -7 20 -25 20
-18 0 -25 -5 -25 -20z"/>
<path d="M1710 1030 c0 -15 7 -20 25 -20 18 0 25 5 25 20 0 15 -7 20 -25 20
-18 0 -25 -5 -25 -20z"/>
<path d="M1260 940 c0 -15 7 -20 25 -20 18 0 25 5 25 20 0 15 -7 20 -25 20
-18 0 -25 -5 -25 -20z"/>
<path d="M1350 940 c0 -19 7 -20 160 -20 153 0 160 1 160 20 0 19 -7 20 -160
20 -153 0 -160 -1 -160 -20z"/>
<path d="M1710 940 c0 -15 7 -20 25 -20 18 0 25 5 25 20 0 15 -7 20 -25 20
-18 0 -25 -5 -25 -20z"/>
</g>
</svg>
